<svg width="71" height="23" viewBox="0 0 71 23" fill="none" xmlns="http://www.w3.org/2000/svg">
<path d="M10.6254 8.86779C10.6254 10.0804 9.51381 12.2699 9.51381 14.4257C9.51381 15.9752 10.6254 17.2215 12.8485 17.2215C14.9706 17.2215 16.4191 15.9078 17.1264 14.9983C17.4633 14.5604 17.6654 14.2909 17.6654 13.9204C17.6654 13.7183 17.497 13.4488 17.1938 13.4488C16.9917 13.4488 16.857 13.5499 16.6212 13.7857C16.1833 14.2236 15.9138 14.4931 15.3412 14.4931C14.7349 14.4931 14.2296 13.9878 14.2296 13.112C14.2296 10.8888 15.3075 8.76674 15.3075 7.41937C15.3075 6.84673 14.937 6.54358 14.1959 6.54358C13.5222 6.54358 12.2759 6.77937 11.198 6.74568C10.1875 6.712 9.00854 6.44252 9.00854 5.49937C9.00854 4.58989 9.51381 2.19831 10.3559 2.19831C10.8275 2.19831 11.0296 2.40042 11.0296 2.93937C11.0296 3.81516 11.5349 4.65726 12.8485 4.65726C13.8254 4.65726 14.6675 3.81516 14.6675 2.70358C14.6675 1.38989 13.3875 0.244629 10.558 0.244629C8.33486 0.244629 5.40433 1.12042 4.29275 5.83621C4.12433 6.50989 3.95591 6.712 3.28223 6.712C2.97907 6.712 2.54117 7.25095 2.54117 7.72252C2.54117 7.992 2.74328 8.1941 3.08012 8.1941C3.58538 8.1941 3.75381 8.39621 3.75381 8.80042C3.75381 9.272 2.7096 15.6046 1.96854 18.2994C1.6317 19.5794 1.19381 20.3541 0.755911 20.9604C0.553806 21.2299 0.284332 21.5331 0.284332 21.7688C0.284332 22.1057 0.452753 22.2404 0.924332 22.2404C2.00223 22.2404 5.80854 20.6236 6.44854 18.1309C6.98749 16.1773 7.62749 12.5394 8.06538 10.2825C8.26749 9.272 8.57065 8.09305 9.61486 8.09305C10.3222 8.09305 10.6254 8.39621 10.6254 8.86779Z" fill="white"/>
<path d="M21.4762 11.5625C21.4762 9.57516 22.8235 7.92463 23.8341 7.92463C24.373 7.92463 24.6425 8.1941 24.6425 8.69937C24.6425 9.50779 23.3962 11.192 21.4762 11.5625ZM24.0025 15.0657C22.3856 15.0657 21.4762 14.1562 21.4762 12.9773C24.8446 12.7078 27.1014 10.8552 27.1014 8.93516C27.1014 7.48673 26.0572 6.47621 23.7667 6.47621C19.2867 6.47621 16.6593 9.40674 16.6593 12.6741C16.6593 15.9078 18.8825 17.3225 22.0488 17.3225C25.3162 17.3225 26.9667 15.672 28.0783 14.4931C28.5835 13.9541 28.752 13.6846 28.752 13.3478C28.752 13.1457 28.6172 12.9436 28.3478 12.9436C28.1456 12.9436 27.9099 13.112 27.6404 13.3478C26.8993 13.9541 25.7204 15.0657 24.0025 15.0657Z" fill="white"/>
<path d="M28.6614 12.6404C27.8867 12.6404 27.112 13.2804 27.112 14.3583C27.112 16.1773 28.9646 17.2888 31.4909 17.2888C34.4551 17.2888 36.2067 15.8067 36.2067 13.6173C36.2067 11.1583 32.5014 10.8888 32.5014 8.90147C32.5014 8.26147 33.0404 7.78989 33.4783 7.78989C33.8488 7.78989 34.1183 7.92463 34.1183 8.26147C34.1183 8.56463 33.8488 8.76674 33.8488 9.272C33.8488 9.912 34.4214 10.4173 35.0614 10.4173C36.173 10.4173 36.6446 9.60884 36.6446 8.69937C36.6446 7.31831 35.533 6.37516 33.0741 6.37516C30.5478 6.37516 28.4256 7.45305 28.4256 9.57516C28.4256 12.1015 31.7604 12.4046 31.7604 14.392C31.7604 14.9983 31.4909 15.3015 31.0193 15.3015C30.413 15.3015 30.1099 14.7288 30.1099 13.8867C30.1099 13.0783 29.5709 12.6404 28.6614 12.6404Z" fill="white"/>
<path d="M44.1551 8.22779C44.5593 8.22779 44.9299 7.75621 44.9299 7.08252C44.9299 6.81305 44.7278 6.712 44.4583 6.712C43.4478 6.712 43.313 6.47621 43.313 6.03831C43.313 5.46568 43.7846 4.08463 43.7846 3.34358C43.7846 3.0741 43.6162 2.80463 43.2456 2.80463C42.9425 2.80463 42.673 3.00673 42.3362 3.54568C41.4604 4.96042 39.8099 6.712 38.0246 6.712C37.6541 6.712 37.452 7.352 37.452 7.68884C37.452 8.29516 38.3614 8.02568 38.3614 8.46358C38.3614 10.1478 37.3172 11.832 37.3172 13.9878C37.3172 15.7731 38.3614 17.2215 40.7867 17.2215C43.3467 17.2215 46.2435 14.4594 46.2435 13.4825C46.2435 13.2804 46.0751 13.0783 45.8056 13.0783C45.3341 13.0783 44.2899 14.4931 43.313 14.4931C42.5046 14.4931 41.9993 14.1225 41.9993 13.112C41.9993 12.0004 42.4372 10.2825 42.7067 9.30568C42.9425 8.49726 43.313 8.22779 44.1551 8.22779Z" fill="white"/>
<path d="M50.7354 11.0909C51.2406 10.1478 51.6785 9.70989 51.8806 9.64252C51.8806 10.2488 52.3522 10.9225 53.2954 10.9225C54.6764 10.9225 55.4849 9.50779 55.4849 8.26147C55.4849 7.25095 54.8785 6.67831 53.9354 6.67831C51.8806 6.67831 50.9712 8.86779 50.9712 8.86779C50.9712 8.86779 51.1733 7.95831 51.1733 7.41937C51.1733 6.84673 50.7691 6.54358 50.028 6.54358C48.0743 6.54358 46.2554 7.04884 46.2554 7.78989C46.2554 8.22779 46.4912 8.29515 46.4912 8.86779C46.4912 10.6867 45.0764 15.2341 45.0764 16.4804C45.0764 17.0531 45.3459 17.2215 45.7838 17.2215C46.2891 17.2215 47.6028 17.0531 48.6133 17.0531C49.1185 17.0531 49.3543 16.9183 49.3543 16.3457C49.3543 15.032 50.1291 12.2362 50.7354 11.0909Z" fill="white"/>
<path d="M62.5191 6.40884C57.9043 6.40884 55.3106 9.67621 55.3106 12.9436C55.3106 15.6383 57.2306 17.3562 60.1949 17.3562C64.338 17.3562 66.7296 14.1225 66.7296 10.3499C66.7296 8.02568 65.0117 6.40884 62.5191 6.40884ZM64.237 12.3373C64.237 13.5162 63.3612 14.8973 62.0138 14.8973C60.7001 14.8973 59.8243 13.9204 59.8243 12.4046C59.8243 10.4846 60.6327 9.23831 61.4749 8.56463C61.9464 8.1941 62.2833 8.09305 62.418 8.09305C62.6201 8.09305 62.7212 8.1941 62.7212 8.36252C62.7212 8.56463 62.2159 8.8341 62.2159 9.67621C62.2159 10.2825 62.5191 10.6531 63.5633 11.0573C64.0349 11.2594 64.237 11.7646 64.237 12.3373Z" fill="white"/>
<path d="M66.9235 15.672C66.9235 16.5815 67.4625 17.2552 68.2035 17.2552C69.5509 17.2552 70.4941 15.8741 70.4941 14.7625C70.4941 13.8867 69.9551 13.213 69.1467 13.213C67.9341 13.213 66.9235 14.5941 66.9235 15.672Z" fill="white"/>
</svg>
