<svg width="32" height="32" viewBox="0 0 32 32" fill="none" xmlns="http://www.w3.org/2000/svg">
<g clip-path="url(#clip0_157_184)">
<path d="M1.60409 22.9906C1.59896 22.9815 1.59455 22.9718 1.58985 22.9621L1.52248 22.8214C1.48274 22.7367 1.44272 22.6515 1.40456 22.5657C1.40456 22.5657 1.36439 22.4757 1.34887 22.4405C1.33334 22.4053 1.31782 22.3708 1.30329 22.3368C1.28663 22.2984 1.27025 22.2598 1.25444 22.2219L1.2402 22.1889C1.22055 22.142 1.20089 22.0947 1.18152 22.0474C1.14544 21.9594 1.11027 21.8712 1.07599 21.7829C1.06175 21.7469 1.0485 21.7109 1.03483 21.6748L1.00734 21.6023C0.991107 21.5586 0.97544 21.5167 0.960486 21.4751C0.953935 21.4586 0.950089 21.4466 0.946244 21.4355L0.94126 21.4212C0.926163 21.3796 0.911066 21.3378 0.896397 21.2959L0.893549 21.2877C0.873183 21.2297 0.852817 21.1712 0.833163 21.1126C0.818921 21.0724 0.806102 21.0317 0.792856 20.991L0.764372 20.902C0.75013 20.8555 0.734607 20.8092 0.720222 20.7626C0.707119 20.7204 0.694255 20.6781 0.681627 20.6357L0.674648 20.6125C0.626367 20.4511 0.584923 20.306 0.548178 20.1687C0.482807 19.9264 0.422278 19.6777 0.368015 19.4275C0.361606 19.3976 0.355624 19.3677 0.349642 19.3377L0.336541 19.2733L0.32415 19.214C0.313611 19.164 0.303071 19.1142 0.293244 19.0638L0.271311 18.9466C0.262054 18.9 0.253936 18.8557 0.246387 18.8113C0.243681 18.7971 0.241545 18.7851 0.239836 18.7736L0.238698 18.7666C0.236561 18.7556 0.234851 18.7486 0.234139 18.7411V18.7355L0.233001 18.7299C0.225879 18.6917 0.219756 18.6538 0.213774 18.6159C0.206653 18.5732 0.200386 18.5304 0.193977 18.4883L0.179735 18.3904C0.168769 18.3192 0.157803 18.2479 0.147976 18.1766C0.139858 18.117 0.132736 18.0572 0.125615 17.9974L0.111372 17.8777C0.107954 17.8508 0.104537 17.8238 0.101546 17.7966L0.0824606 17.6176C0.0709245 17.5088 0.0613825 17.4008 0.0524099 17.2926C0.0461434 17.2129 0.0404473 17.1326 0.0353201 17.0518C0.0340383 17.031 0.0274863 16.916 0.0274863 16.916C0.02535 16.8797 0.0232146 16.8433 0.0213631 16.807C0.0159511 16.7018 0.0113933 16.5966 0.00854491 16.4909L0.00469927 16.3662C0.0035599 16.3192 0.00284717 16.2719 0.00227748 16.2245C0.00128054 16.1628 0.000996043 16.102 0.000853622 16.041L0 15.9824C0 15.8444 0.0022786 15.6996 0.00697849 15.5262L0.00854491 15.4667C0.0105388 15.4096 0.0123896 15.3526 0.0149532 15.2956V15.2876C0.0170895 15.2372 0.0197959 15.1853 0.0225019 15.1334C0.0263473 15.0564 0.0306206 14.9799 0.0357478 14.9035C0.0384538 14.8617 0.0415871 14.8201 0.0447204 14.7785L0.0508435 14.6951L0.0601012 14.5868C0.0655132 14.5239 0.0712095 14.4606 0.0773336 14.3975L0.0789 14.3807C0.0847393 14.3179 0.0910071 14.2566 0.0979857 14.1954L0.116499 14.0367C0.126611 13.9503 0.137436 13.864 0.149542 13.7776L0.173753 13.6077C0.17831 13.5747 0.183295 13.5428 0.187995 13.5109L0.197395 13.4539C0.20689 13.3937 0.216764 13.3335 0.227018 13.2733L0.235706 13.2207C0.246387 13.1572 0.257496 13.095 0.269174 13.0328C0.269174 13.0328 0.30065 12.8665 0.307059 12.8341C0.314892 12.7949 0.323152 12.7553 0.331412 12.7157C0.331412 12.7157 0.350356 12.6249 0.358047 12.5892C0.365737 12.5536 0.372287 12.521 0.379836 12.4873L0.385105 12.4631C0.389947 12.442 0.394647 12.4203 0.399347 12.3995L0.431107 12.2607C0.448957 12.1856 0.467377 12.1108 0.486366 12.0363C0.491778 12.0128 0.496906 11.992 0.502745 11.9717L0.548889 11.7949C0.553304 11.7782 0.557435 11.7622 0.562135 11.7463C0.576377 11.6929 0.590619 11.6428 0.604861 11.5927L0.624231 11.5256C0.637238 11.4801 0.650484 11.4348 0.663966 11.3898L0.682054 11.3315C0.705554 11.2538 0.729622 11.1758 0.754403 11.0981C0.76931 11.0506 0.784501 11.0036 0.799977 10.9572C0.824379 10.8833 0.849207 10.8098 0.874463 10.7366C0.874463 10.7366 0.895828 10.6729 0.90067 10.6594C0.907364 10.64 0.914199 10.6212 0.921035 10.6024L0.929297 10.5797C0.984129 10.4262 1.03369 10.2928 1.08097 10.1713C1.0965 10.1313 1.11273 10.0915 1.12897 10.0517L1.15475 9.9876L1.17554 9.93543C1.1875 9.90536 1.19947 9.87528 1.21186 9.84535L1.26313 9.72334C1.27282 9.69982 1.28093 9.68058 1.28976 9.66048C1.28976 9.66048 1.31269 9.60717 1.31825 9.59562C1.33747 9.55087 1.35585 9.5091 1.37522 9.46648L1.43375 9.33649C1.46551 9.26664 1.49713 9.19765 1.5306 9.12881L1.54057 9.108C1.55894 9.06937 1.57745 9.03031 1.5964 8.99126L1.60494 8.97358C1.63157 8.91899 1.65821 8.86497 1.68555 8.81094L1.7156 8.75194C1.73782 8.70803 1.76004 8.66413 1.78268 8.62037C1.82503 8.53884 1.86775 8.45749 1.91086 8.37634L1.98948 8.23252L2.00757 8.20002C2.02551 8.16771 2.04364 8.13541 2.06197 8.1031C2.0792 8.07231 2.09644 8.04266 2.11367 8.01287L2.12592 7.99192C2.2541 7.77027 2.39167 7.54477 2.53566 7.32198L2.55902 7.28507L2.65544 7.13825C2.68592 7.09164 2.71611 7.04631 2.74687 7.0017L2.77536 6.96207C2.82492 6.88966 2.87505 6.81782 2.92647 6.74598L2.95409 6.70678C2.97679 6.67457 2.99962 6.6425 3.0226 6.61057C3.08598 6.52305 3.15078 6.43639 3.21615 6.34987L3.27625 6.26962L3.36954 6.1486C3.41497 6.08959 3.46054 6.03258 3.50669 5.9757L3.60852 5.84998L3.60966 5.84913L3.61963 5.83701C3.66007 5.78698 3.70124 5.73723 3.74296 5.6882L3.87114 5.53754C3.91487 5.48679 3.95802 5.43776 4.00189 5.38744L4.12437 5.25075C4.18134 5.18775 4.23831 5.12517 4.29684 5.06302C4.31436 5.04392 4.33131 5.02611 4.34811 5.00829L4.40237 4.95127C4.42488 4.92761 4.44425 4.90851 4.46376 4.88813L4.55078 4.79847C4.59521 4.75243 4.63965 4.70639 4.68494 4.66107C6.46078 2.88375 8.5528 1.58351 10.903 0.79612C11.2295 0.686792 11.5634 0.587014 11.8956 0.499353C12.9133 0.231963 13.9549 0.0652016 15.0052 0.00146484V3.02571C13.9803 3.10304 12.9683 3.30283 11.9908 3.62081V3.61953L11.8142 3.67983C11.7315 3.70833 11.6495 3.73755 11.5676 3.76749C11.4952 3.79371 11.4234 3.82122 11.3517 3.84888L11.3168 3.86213L11.2477 3.88879C11.1648 3.92157 11.0823 3.95531 11.0003 3.98999C11.0003 3.98999 10.9433 4.01308 10.9307 4.0185L10.8807 4.03988C10.8047 4.07266 10.7293 4.10592 10.6545 4.13966L10.5716 4.17743C10.3919 4.26067 10.2146 4.34748 10.0447 4.43585L10.0162 4.45011C9.83445 4.54504 9.65258 4.64553 9.47498 4.74944L9.43995 4.77011C9.35791 4.81828 9.2764 4.86741 9.19541 4.91749L9.16479 4.93645C9.10782 4.97166 9.05313 5.00772 8.99773 5.04293L8.95757 5.06873C8.93221 5.08512 8.90672 5.10137 8.88151 5.11804C8.71673 5.22652 8.55395 5.33898 8.39728 5.45216L8.3688 5.47297C8.11771 5.65613 7.87032 5.85055 7.63305 6.05096L7.61098 6.06963C7.53312 6.13615 7.45607 6.2031 7.37983 6.27047C7.30007 6.34127 7.22126 6.4132 7.14341 6.48628L7.09669 6.53046C7.03403 6.58957 6.97193 6.6492 6.91041 6.70935L6.84261 6.77706C6.78778 6.83165 6.73309 6.88653 6.67926 6.94226L6.63497 6.98801C6.56575 7.06014 6.49734 7.13298 6.42974 7.20653L6.4135 7.22434C6.35425 7.28953 6.29534 7.35538 6.23676 7.4219L6.18064 7.4859C6.05844 7.62716 5.93497 7.77654 5.81348 7.93005C5.78371 7.96768 5.75409 8.00574 5.72461 8.04409C5.68815 8.0916 5.65198 8.13911 5.61609 8.18662L5.60768 8.19788C5.58461 8.22839 5.56173 8.25903 5.53904 8.28982C5.48577 8.36223 5.43312 8.43512 5.38109 8.50848L5.36343 8.53342C5.35261 8.54896 5.34121 8.56564 5.32996 8.58246L5.30703 8.61595C5.25847 8.68608 5.21019 8.75664 5.16304 8.82805C5.14553 8.85456 5.12829 8.88122 5.11106 8.90801L5.08699 8.94564C5.04327 9.01335 4.99983 9.08091 4.95767 9.14933C4.91856 9.21233 4.87982 9.27577 4.84146 9.33962C4.82935 9.35972 4.78748 9.43127 4.78748 9.43127C4.75216 9.49171 4.71731 9.55229 4.68294 9.61301C4.66158 9.65102 4.64045 9.68903 4.61957 9.72704C4.58781 9.78406 4.55633 9.84293 4.52528 9.90137C4.48056 9.98518 4.43693 10.0697 4.3944 10.1548C4.3944 10.1548 4.36406 10.2142 4.35666 10.2292L4.31706 10.3099C4.27909 10.3887 4.24149 10.4678 4.20427 10.5474L4.18091 10.5982C4.14094 10.686 4.10196 10.7738 4.06398 10.8617L4.05259 10.8876C4.02282 10.9576 3.99434 11.0277 3.96585 11.098L3.96058 11.1108C3.93979 11.1618 3.91924 11.2133 3.89892 11.2653C3.87157 11.3353 3.84451 11.4057 3.81831 11.4766L3.81289 11.4908C3.80905 11.5008 3.80535 11.5108 3.80178 11.5209L3.79281 11.5456C3.76305 11.6274 3.73456 11.7089 3.70651 11.7907L3.67432 11.8861C3.66008 11.9271 3.64769 11.9679 3.63472 12.0087L3.62504 12.0393C3.59713 12.1271 3.57002 12.2153 3.54372 12.304L3.53588 12.3301C3.52549 12.3656 3.51509 12.4014 3.50498 12.4364C3.50498 12.4364 3.48433 12.5088 3.4765 12.5353C3.4539 12.6174 3.43211 12.7 3.41112 12.7829L3.40856 12.7935C3.39859 12.831 3.38834 12.8737 3.37822 12.9165L3.37438 12.9326C3.36398 12.9761 3.35359 13.02 3.34347 13.0639L3.33735 13.0903C3.32866 13.128 3.31997 13.1657 3.31171 13.2036L3.30716 13.225C3.29159 13.2964 3.27677 13.3677 3.26272 13.4388L3.25774 13.4637C3.25375 13.4835 3.24976 13.5035 3.24606 13.5233C3.22313 13.6413 3.20105 13.7656 3.18069 13.8906L3.17741 13.9124C3.15804 14.0339 3.14052 14.153 3.12557 14.2666C3.11631 14.3366 3.10777 14.407 3.09951 14.4774L3.0978 14.4927C3.09481 14.5168 3.09139 14.544 3.08883 14.5708L3.08527 14.6044C3.07843 14.6693 3.07245 14.7339 3.06661 14.7984C3.05991 14.8697 3.05393 14.9428 3.0488 15.0154C3.04453 15.0724 3.0404 15.1304 3.03698 15.1883C3.03347 15.2428 3.03053 15.2978 3.02815 15.3532C3.02559 15.4045 3.0236 15.4564 3.02174 15.5084C3.01875 15.5821 3.0169 15.6565 3.01562 15.7312C3.01448 15.7902 3.01348 15.8495 3.0132 15.909V15.9828V16.0305C3.0132 16.1032 3.01434 16.1755 3.01576 16.2478C3.01576 16.2664 3.01747 16.3297 3.01747 16.3297V16.3367C3.01937 16.4017 3.02175 16.4666 3.02459 16.5314C3.02616 16.5695 3.02773 16.6074 3.02958 16.6455L3.03172 16.6852C3.03442 16.7364 3.03755 16.785 3.04069 16.8346C3.0451 16.9 3.0498 16.9649 3.05493 17.0297C3.05906 17.0808 3.06319 17.1315 3.06775 17.1821L3.07473 17.2598C3.08171 17.3311 3.08982 17.4023 3.09794 17.4736C3.1025 17.5132 3.10634 17.5474 3.11076 17.5824L3.1156 17.62C3.12215 17.6725 3.12984 17.7245 3.13639 17.7768C3.14494 17.8405 3.15462 17.9051 3.16488 17.9686L3.16958 17.999C3.17656 18.0446 3.18382 18.0901 3.19108 18.1356L3.19778 18.1755C3.21202 18.259 3.22726 18.3417 3.24307 18.4242L3.25489 18.4856C3.25603 18.4922 3.25731 18.4988 3.25873 18.5052L3.28722 18.6905L3.45057 18.601L11.9908 13.6664V10.3469L5.63517 14.0196C5.97122 12.2553 6.75097 10.6057 7.9008 9.22673L13.9951 5.70602L14.5345 5.394L15.0045 5.12318V8.60498V8.67967V15.4086L4.39255 21.5401L1.66604 23.1164L1.60409 22.9906Z" fill="white"/>
<path d="M16.0226 32.0001C15.0722 31.9996 14.1238 31.9146 13.1884 31.746L18.3542 28.7611C20.6537 28.3346 22.7959 27.2962 24.5559 25.7548L24.6906 25.6366L21.6612 23.8853L9.79281 30.7435C8.70788 30.2905 7.67664 29.7182 6.71809 29.037L18.6672 22.133L18.4504 22.0305L15.9952 20.612L4.57878 27.2085C3.93161 26.5461 3.34288 25.829 2.81917 25.065C2.76695 24.9884 2.71473 24.911 2.66251 24.833L15.9952 17.1289L21.5965 20.3661L26.674 23.2998L27.1764 23.5898L29.3344 24.837C28.9878 25.3611 28.6101 25.8641 28.2034 26.3431L28.1799 26.3716C27.9137 26.6836 27.6319 26.9889 27.3422 27.2791C26.3441 28.2789 25.2188 29.1428 23.9953 29.8484C21.5592 31.2559 18.8022 32.0001 16.0226 32.0001Z" fill="white"/>
<path d="M27.6057 21.5409L16.9937 15.4096V4.89249C17.8738 4.97031 18.7414 5.15374 19.5777 5.43884C19.7252 5.4893 19.8695 5.54204 20.0078 5.59563V13.6673L28.7033 18.6917L28.7382 18.5159C28.9031 17.6818 28.986 16.8336 28.9857 15.9833C28.9857 10.418 25.4459 5.47219 20.1773 3.67634C19.1478 3.32559 18.0781 3.10672 16.9937 3.02494V0.000976562C18.0441 0.0646429 19.0856 0.231407 20.1034 0.498866C22.8139 1.21341 25.3073 2.65234 27.3136 4.661C30.3355 7.68597 31.9992 11.7073 31.9992 15.9842C32.0003 17.3976 31.8156 18.805 31.4496 20.1701C31.1766 21.1876 30.8023 22.1752 30.3325 23.1179L27.6057 21.5409Z" fill="white"/>
</g>
<defs>
<clipPath id="clip0_157_184">
<rect width="32" height="32" fill="white"/>
</clipPath>
</defs>
</svg>
