<svg width="20" height="20" viewBox="0 0 20 20" fill="none" xmlns="http://www.w3.org/2000/svg">
<circle cx="10" cy="10" r="7.75" stroke="white" stroke-width="0.5"/>
<path d="M9.17448 7.96224C9.11576 7.96431 9.05723 7.95454 9.00238 7.9335C8.94752 7.91246 8.89746 7.88058 8.85519 7.83978C8.81292 7.79897 8.7793 7.75007 8.75634 7.69599C8.73338 7.64191 8.72155 7.58376 8.72155 7.52501C8.72155 7.46626 8.73338 7.40811 8.75634 7.35403C8.7793 7.29995 8.81292 7.25105 8.85519 7.21024C8.89746 7.16944 8.94752 7.13756 9.00238 7.11652C9.05723 7.09549 9.11576 7.08571 9.17448 7.08778L12.4743 7.08778C12.5902 7.08786 12.7014 7.13394 12.7834 7.21592C12.8654 7.2979 12.9115 7.40907 12.9115 7.52501L12.9115 10.8248C12.9136 10.8836 12.9038 10.9421 12.8828 10.9969C12.8618 11.0518 12.8299 11.1019 12.7891 11.1441C12.7483 11.1864 12.6994 11.22 12.6453 11.243C12.5912 11.2659 12.5331 11.2778 12.4743 11.2778C12.4156 11.2778 12.3574 11.2659 12.3033 11.243C12.2492 11.22 12.2003 11.1864 12.1595 11.1441C12.1187 11.1019 12.0869 11.0518 12.0658 10.9969C12.0448 10.9421 12.035 10.8836 12.0371 10.8248V8.58096L8.04016 12.5779C7.95812 12.6599 7.84684 12.706 7.7308 12.706C7.61477 12.706 7.50349 12.6599 7.42144 12.5779C7.3394 12.4958 7.2933 12.3846 7.2933 12.2685C7.2933 12.1525 7.3394 12.0412 7.42144 11.9592L11.4184 7.96224L9.17448 7.96224Z" fill="white"/>
</svg>
