<svg width="14" height="14" viewBox="0 0 14 14" fill="#000" xmlns="http://www.w3.org/2000/svg">
<path d="M4.97535 6.14285C4.9353 6.18583 4.887 6.22031 4.83333 6.24422C4.77967 6.26813 4.72173 6.28099 4.66299 6.28203C4.60425 6.28306 4.5459 6.27226 4.49142 6.25025C4.43694 6.22825 4.38746 6.1955 4.34591 6.15395C4.30437 6.11241 4.27162 6.06292 4.24961 6.00845C4.22761 5.95397 4.21681 5.89562 4.21784 5.83688C4.21888 5.77813 4.23174 5.7202 4.25565 5.66653C4.27956 5.61287 4.31404 5.56457 4.35702 5.52451L6.69035 3.19118C6.77238 3.10925 6.88358 3.06323 6.99952 3.06323C7.11546 3.06323 7.22665 3.10925 7.30869 3.19118L9.64202 5.52451C9.685 5.56457 9.71948 5.61287 9.74339 5.66653C9.7673 5.7202 9.78016 5.77813 9.7812 5.83688C9.78223 5.89562 9.77143 5.95397 9.74942 6.00845C9.72742 6.06292 9.69467 6.11241 9.65313 6.15395C9.61158 6.1955 9.56209 6.22825 9.50762 6.25025C9.45314 6.27226 9.39479 6.28306 9.33605 6.28203C9.27731 6.28099 9.21937 6.26813 9.16571 6.24422C9.11204 6.22031 9.06374 6.18583 9.02369 6.14285L7.43702 4.55618V10.2087C7.43702 10.3247 7.39093 10.436 7.30888 10.518C7.22683 10.6001 7.11555 10.6462 6.99952 10.6462C6.88349 10.6462 6.77221 10.6001 6.69016 10.518C6.60811 10.436 6.56202 10.3247 6.56202 10.2087V4.55618L4.97535 6.14285Z"/>
</svg>
