<svg width="15" height="10" viewBox="0 0 15 10" fill="none" xmlns="http://www.w3.org/2000/svg">
<path d="M6.297 4.63931H6.216L6.396 4.54031C6.76926 4.348 7.06079 4.02771 7.21725 3.63806C7.35898 3.2295 7.39637 2.792 7.326 2.36531C7.28402 1.98801 7.14126 1.62896 6.9127 1.32584C6.68414 1.02272 6.37821 0.786704 6.027 0.642563C5.57144 0.44576 5.07946 0.347364 4.58325 0.353813H0V9.61931H4.1865C4.58532 9.61968 4.98347 9.58657 5.37675 9.52031C5.80613 9.45936 6.21347 9.29206 6.56175 9.03364C6.91003 8.77521 7.18821 8.43385 7.371 8.04056C7.6443 7.48074 7.72347 6.84586 7.596 6.23606C7.5421 5.87796 7.39316 5.54086 7.16469 5.25989C6.93622 4.97892 6.63658 4.76436 6.297 4.63856V4.63931ZM2.175 1.96931H3.9795C4.28404 1.96917 4.58732 2.0085 4.88175 2.08631C5.04177 2.12409 5.18566 2.2117 5.29268 2.33652C5.39971 2.46133 5.46433 2.61691 5.47725 2.78081C5.51422 2.96548 5.51422 3.15565 5.47725 3.34031C5.45132 3.44461 5.40328 3.54211 5.33638 3.62622C5.26948 3.71033 5.18529 3.77908 5.0895 3.82781C4.80997 3.96802 4.49981 4.03609 4.18725 4.02581H2.15625L2.175 1.96931ZM5.66625 7.14731C5.62563 7.36608 5.51632 7.5662 5.35421 7.71861C5.19209 7.87102 4.98561 7.96777 4.76475 7.99481C4.56859 8.03407 4.36927 8.05541 4.16925 8.05856H2.15625V5.60456H4.3035C4.53402 5.60477 4.7628 5.64434 4.98 5.72156C5.17344 5.78277 5.34318 5.90236 5.46592 6.06391C5.58866 6.22546 5.65838 6.42105 5.6655 6.62381C5.68903 6.79752 5.68903 6.97361 5.6655 7.14731H5.66625ZM14.9955 6.54281C15.0045 6.52481 15.0045 6.50681 14.9775 6.52481V5.52356C14.9684 5.06474 14.8636 4.61287 14.67 4.19681C14.3769 3.57159 13.8629 3.07686 13.227 2.80781C12.5275 2.52031 11.7588 2.44493 11.0167 2.59106C10.453 2.66964 9.92463 2.91138 9.49659 3.28651C9.06855 3.66164 8.75959 4.15378 8.60775 4.70231C8.3443 5.54407 8.30705 6.44035 8.49975 7.30106C8.58978 7.78653 8.81489 8.23676 9.14925 8.60006C9.57557 9.03537 10.1118 9.34715 10.701 9.50231C11.268 9.65713 11.8618 9.68782 12.4418 9.59231C13.1708 9.50358 13.8419 9.15054 14.328 8.60006C14.5698 8.3422 14.7516 8.03411 14.8605 7.69781C14.9119 7.62081 14.9342 7.52803 14.9235 7.43606H13.155C13.1362 7.43452 13.1175 7.4389 13.1013 7.44859C13.0852 7.45827 13.0725 7.47278 13.065 7.49006C12.9766 7.66446 12.8492 7.81618 12.6927 7.93349C12.5363 8.05079 12.3549 8.13054 12.1627 8.16656C11.8948 8.22142 11.6185 8.22142 11.3505 8.16656C11.1203 8.13208 10.902 8.04173 10.7148 7.9034C10.5276 7.76508 10.3771 7.58299 10.2765 7.37306C10.1974 7.2017 10.1458 7.01897 10.1235 6.83156V6.54281H14.9955ZM10.2315 5.24381C10.2712 5.09955 10.3196 4.9578 10.3763 4.81931C10.4717 4.58287 10.6348 4.3798 10.845 4.23547C11.0552 4.09115 11.3033 4.01196 11.5582 4.00781C11.8246 3.98249 12.0932 4.01946 12.3428 4.11581C12.569 4.20245 12.7674 4.34901 12.9167 4.53979C13.066 4.73058 13.1605 4.95839 13.1903 5.19881V5.38781L10.2315 5.41481C10.2282 5.35786 10.2282 5.30077 10.2315 5.24381ZM13.5427 0.732563H9.78975V1.81556L13.5427 1.80656V0.732563Z" fill="white"/>
</svg>
