<svg width="15" height="14" viewBox="0 0 15 14" fill="none" xmlns="http://www.w3.org/2000/svg">
<path d="M12.75 0.25C13.1478 0.25 13.5294 0.408035 13.8107 0.68934C14.092 0.970644 14.25 1.35218 14.25 1.75V12.25C14.25 12.6478 14.092 13.0294 13.8107 13.3107C13.5294 13.592 13.1478 13.75 12.75 13.75H2.25C1.85218 13.75 1.47064 13.592 1.18934 13.3107C0.908035 13.0294 0.75 12.6478 0.75 12.25V1.75C0.75 1.35218 0.908035 0.970644 1.18934 0.68934C1.47064 0.408035 1.85218 0.25 2.25 0.25H12.75ZM12.375 11.875V7.9C12.375 7.25155 12.1174 6.62965 11.6589 6.17112C11.2003 5.7126 10.5785 5.455 9.93 5.455C9.2925 5.455 8.55 5.845 8.19 6.43V5.5975H6.0975V11.875H8.19V8.1775C8.19 7.6 8.655 7.1275 9.2325 7.1275C9.51098 7.1275 9.77805 7.23812 9.97496 7.43504C10.1719 7.63195 10.2825 7.89902 10.2825 8.1775V11.875H12.375ZM3.66 4.42C3.99417 4.42 4.31466 4.28725 4.55095 4.05095C4.78725 3.81466 4.92 3.49417 4.92 3.16C4.92 2.4625 4.3575 1.8925 3.66 1.8925C3.32384 1.8925 3.00144 2.02604 2.76374 2.26374C2.52604 2.50144 2.3925 2.82384 2.3925 3.16C2.3925 3.8575 2.9625 4.42 3.66 4.42ZM4.7025 11.875V5.5975H2.625V11.875H4.7025Z" fill="white"/>
</svg>
