<svg width="48" height="48" viewBox="0 0 48 48" fill="none" xmlns="http://www.w3.org/2000/svg">
<path d="M12.2642 0.898438C11.8402 1.77088 10.9047 2.46338 9.96875 2.46338C11.2344 2.46338 12.5 3.72901 12.5 4.99463C12.5 3.72901 13.7656 2.46338 15.0312 2.46338C14.0953 2.46338 13.1599 1.77088 12.7358 0.898438H12.2642ZM42.875 2.375C42.875 3.21875 42.0312 4.0625 41.1875 4.0625C42.0312 4.0625 42.875 4.90625 42.875 5.75C42.875 4.90625 43.7188 4.0625 44.5625 4.0625C43.7188 4.0625 42.875 3.21875 42.875 2.375ZM35.2812 6.59375C35.2812 7.85938 34.0156 9.125 32.75 9.125C34.0156 9.125 35.2812 10.3906 35.2812 11.6562C35.2812 10.3906 36.5469 9.125 37.8125 9.125C36.5469 9.125 35.2812 7.85938 35.2812 6.59375ZM0.898438 10.1869V43.5392C10.8136 43.1174 22.0115 42.9428 32.7915 39.9719C37.3136 38.8207 40.8714 37.4672 43.3739 35.929C45.8766 34.391 47.4499 32.5833 47.4499 30.4824C47.4404 29.5729 47.0692 28.6175 46.6049 27.8982C46.2531 27.3777 45.7991 26.8794 45.257 26.4033C45.4184 26.0074 45.501 25.5838 45.5003 25.1562C45.5003 23.3392 44.0478 21.8867 42.2308 21.8867C40.4139 21.8867 38.9613 23.3392 38.9613 25.1562C38.9613 26.9732 40.4139 28.4258 42.2308 28.4258C42.9073 28.4258 43.5329 28.2243 44.0522 27.8778C44.8226 28.5958 45.5168 29.4929 45.5515 30.4824C45.5515 31.5958 44.617 32.9367 42.3798 34.3116C40.1426 35.6866 36.7288 37.0105 32.323 38.1322C22.625 40.5536 10.8172 41.4375 2.10078 41.6241C4.65133 41.1224 6.98145 40.0132 8.93547 38.4531C11.7724 38.2658 14.307 38.0404 16.9982 37.7066C16.7166 37.0489 16.5809 36.4674 16.6263 35.8388C14.7094 36.0618 12.7287 36.2649 11.0706 36.3977C13.4738 33.6091 14.9258 29.9768 14.9258 26C14.9258 17.8357 8.80754 11.1232 0.898438 10.1869ZM14.9874 18.1223C15.3064 18.7676 15.5859 19.4316 15.8242 20.1108C21.9719 20.7103 27.6114 21.6332 32.323 22.8327C34.0942 23.2834 35.7019 23.7674 37.1405 24.2739C37.2499 23.6437 37.4761 23.0394 37.8074 22.4922C36.2971 21.9601 34.6251 21.4597 32.7917 20.9928C27.6933 19.6949 21.6035 18.7231 14.9875 18.1221L14.9874 18.1223ZM16.3507 21.9104C16.5026 22.5565 16.6181 23.2106 16.6966 23.8696C19.5103 24.2211 22.0867 24.6504 24.3456 25.1462C27.5791 25.856 30.177 26.7051 31.8875 27.5927C32.7428 28.0364 33.3709 28.4917 33.7444 28.8923C34.1177 29.2928 34.2266 29.5922 34.2266 29.8497C34.2266 30.1073 34.1179 30.4066 33.7444 30.8072C33.371 31.2077 32.7427 31.663 31.8875 32.1067C30.1771 32.9944 27.5791 33.8435 24.3456 34.5532C23.9972 34.6296 23.6481 34.703 23.2983 34.7732C23.5393 35.4334 23.6301 36.0275 23.532 36.6628C23.9339 36.583 24.3656 36.4925 24.7527 36.4076C28.0849 35.6762 30.8003 34.8097 32.7617 33.7919C33.7426 33.2829 34.5399 32.738 35.1331 32.1018C35.7261 31.4658 36.1251 30.6917 36.1251 29.8497C36.1251 29.0079 35.7261 28.2337 35.1331 27.5975C34.5399 26.9616 33.7426 26.4165 32.7618 25.9076C30.8005 24.8898 28.0851 24.0232 24.7529 23.292C22.2678 22.7465 19.441 22.2805 16.3509 21.9106L16.3507 21.9104ZM20.0938 34.543C19.2089 34.543 18.5117 35.2401 18.5117 36.125C18.5117 37.0099 19.2089 37.707 20.0938 37.707C20.9786 37.707 21.6758 37.0099 21.6758 36.125C21.6758 35.2401 20.9786 34.543 20.0938 34.543ZM26 44.5625C26 45.4062 25.1562 46.25 24.3125 46.25C25.1562 46.25 26 47.0938 26 47.9375C26 47.0938 26.8438 46.25 27.6875 46.25C26.8438 46.25 26 45.4062 26 44.5625Z" fill="white"/>
</svg>
